# xmcd
#
# Track frame offsets: 
#        150
#        17317
#        30915
#        46065
#        59820
#        74620
#        89847
#        100140
#        112595
#        126722
#        141280
#
# Disc length: 2071 seconds
#
# Revision: 4
# Processed by: cddbd v1.5.2PL0 Copyright (c) Steve Scherf et al.
# Submitted via: ExactAudioCopy v1.0b2
#
DISCID=9708150b
DTITLE=Waylon Jennings and Willie Nelson - WW II 
DYEAR=1982
DGENRE=Country
TTITLE0=Mr. Shuck and Jive
TTITLE1=Roman Candles
TTITLE2=(Sittin' on) The Dock of the Bay
TTITLE3=The Year That Clayton Delaney Died
TTITLE4=Lady In the Harbor
TTITLE5=May I Borrow Some Sugar From You
TTITLE6=Last Cowboy Song
TTITLE7=Heroes
TTITLE8=The Teddy Bear Song
TTITLE9=Write Your Own Songs
TTITLE10=The Old Mother's Locket Trick
EXTD=
EXTT0=
EXTT1=
EXTT2=
EXTT3=
EXTT4=
EXTT5=
EXTT6=
EXTT7=
EXTT8=
EXTT9=
EXTT10=
PLAYORDER=
